# xmcd
#
# Track frame offsets:
#	150
#	15726
#	30562
#	48287
#	65856
#	82185
#	98502
#	110626
#	131843
#	146175
#	162614
#	178166
#	195374
#	210053
#	227887
#	239221
#	258346
#	275327
#	291267
#	314750
#
# Disc length: 4358 seconds
#
# Revision: 1
# Processed by: cddbd v1.4PL0 Copyright (c) Steve Scherf et al.
# Submitted via: audiograbber 1.80
#
DISCID=35110414
DTITLE=Various Artist - Hott Country 028
DYEAR=1900
DGENRE=
TTITLE0=George Strait - I Just Want To Dance With You
TTITLE1=Mark Wills - I Do ( Cherish You )
TTITLE2=Reba McEntire/Brooks and Dunn - If You See Him, If You See Her
TTITLE3=Sammy Kershaw - Matches
TTITLE4=Ty Herndon - A Man Holding On
TTITLE5=Terri Clark - Now That I Found You
TTITLE6=Joe Diffie - Texas Size Heartache
TTITLE7=Shania Twain/Bryan White - From This Moment
TTITLE8=Dixie Chicks - There's Your Trouble
TTITLE9=Collin Raye - I Can Still Feel You
TTITLE10=Martina McBride - Happy Girl
TTITLE11=Trisha Yearwood - There Goes My Baby
TTITLE12=Lorrie Morgan - I'm Not That Easy To Forget
TTITLE13=Wynonna - Always Will
TTITLE14=Wade Hayes - When The Wrong One Loves You Right
TTITLE15=Paul Brandt - Yeah !
TTITLE16=John Berry - Over My Shoulder
TTITLE17=Charlie Major - Thank The Lord For The Night Time
TTITLE18=Gil Grand - Famous First Words
TTITLE19=Data - Data Track
EXTD=
EXTT0=
EXTT1=
EXTT2=
EXTT3=
EXTT4=
EXTT5=
EXTT6=
EXTT7=
EXTT8=
EXTT9=
EXTT10=
EXTT11=
EXTT12=
EXTT13=
EXTT14=
EXTT15=
EXTT16=
EXTT17=
EXTT18=
EXTT19=
PLAYORDER=
